# xmcd CD database file
#
# Track frame offsets:
#	150
#	20860
#	50304
#	80248
#	96346
#	117822
#	150130
#	177815
#	208928
#	237894
#	266599
#	291402
#
# Disc length: 4286 seconds
#
# Revision: 0
# Processed by: cddbd v1.5.2PL0 Copyright (c) Steve Scherf et al.
# Submitted via: CDex 1.51
#
DISCID=a610bc0c
DTITLE=vinicio capossela - Nel niente sotto il sole
DYEAR=2007
DGENRE=italiana
TTITLE0=brucia troia
TTITLE1=non trattare
TTITLE2=mosca valza
TTITLE3=maraja
TTITLE4=corvo torvo
TTITLE5=dove siano rimasti a terra nutless
TTITLE6=signora luna
TTITLE7=pena de l'alma
TTITLE8=con una rosa
TTITLE9=l'uomo vivo
TTITLE10=il ballo di sanvito
TTITLE11=ovunque proteggi
EXTD=YEAR: 2007
EXTT0=
EXTT1=
EXTT2=
EXTT3=
EXTT4=
EXTT5=
EXTT6=
EXTT7=
EXTT8=
EXTT9=
EXTT10=
EXTT11=
PLAYORDER=
